#!OML:ASF H:\charlestonDancing\Project 1\Capture day 1\Session 1\femaleDancer.ASF
:FULLY-SPECIFIED
:DEGREES
244
root -16.9717 17.7534 2.41353 205.666 -109.685 -203.145
lowerback 17.4786 -0.594585 -1.13757
upperback 4.19549 -1.30417 -2.11897
thorax -5.32006 -0.711437 -1.31451
lowerneck 4.37137 4.9424 9.11271
upperneck 8.02675 6.44489 2.28247
head 2.03919 3.39854 -0.764703
rclavicle 3.18055e-014 -4.45278e-014
rhumerus -16.5671 -7.72332 -85.2535
rradius 27.0612
rwrist 45.9699
rhand -32.2699 -39.7668
rfingers 7.12502
rthumb -5.50935 290.325
lclavicle 3.18055e-014 -4.45278e-014
lhumerus -24.3731 -55.9382 111.065
lradius 37.271
lwrist -26.1779
lhand -19.9268 9.39983
lfingers 7.12502
lthumb 6.41047 39.2828
rfemur -40.1013 -18.168 40.4588
rtibia 42.455
rfoot 5.19281 -1.54106
rtoes -9.26206
lfemur -24.2238 7.69148 -23.1137
ltibia 44.7364
lfoot -11.338 -1.34807
ltoes -10.4016
245
root -16.9969 17.6562 2.3966 204.827 -109.147 -202.418
lowerback 17.0625 -0.367244 -1.98598
upperback 3.98728 -1.1689 -2.49495
thorax -5.30868 -0.635715 -1.2648
lowerneck 4.3721 5.18883 9.0449
upperneck 7.94354 6.75451 2.63166
head 2.0055 3.55167 -0.639161
rclavicle 3.4191e-014 3.33958e-014
rhumerus -16.1059 -4.91689 -87.3957
rradius 27.9685
rwrist 49.7417
rhand -33.5664 -38.9561
rfingers 7.12502
rthumb -6.76104 291.172
lclavicle 3.4191e-014 3.33958e-014
lhumerus -29.5264 -62.011 117.3
lradius 39.5329
lwrist -25.3156
lhand -16.6395 8.23325
lfingers 7.12502
lthumb 9.58318 37.9953
rfemur -39.9219 -19.3119 43.0336
rtibia 40.9984
rfoot 9.28483 0.619101
rtoes -11.211
lfemur -24.1305 8.19325 -23.2648
ltibia 45.2293
lfoot -12.0973 -3.24311
ltoes -8.55769
246
root -17.0347 17.5516 2.37865 202.212 -108.788 -200.515
lowerback 17.121 -0.170696 -3.03227
upperback 3.96717 -1.13429 -2.91077
thorax -5.35033 -0.612391 -1.12104
lowerneck 5.04025 5.21754 9.40094
upperneck 7.39146 6.90731 2.56388
head 1.73367 3.60972 -0.744666
rclavicle -2.38542e-015 3.18055e-014
rhumerus -16.027 -3.52167 -89.0028
rradius 28.9952
rwrist 53.9568
rhand -34.0677 -40.3651
rfingers 7.12502
rthumb -7.24487 289.779
lclavicle -2.38542e-015 3.18055e-014
lhumerus -36.5449 -67.4383 125.289
lradius 42.1234
lwrist -24.3705
lhand -13.3612 6.58343
lfingers 7.12502
lthumb 12.745 36.1745
rfemur -38.3725 -19.9866 44.1094
rtibia 39.6572
rfoot 9.58447 1.17444
rtoes -3.07929
lfemur -23.3604 9.21513 -23.6876
ltibia 45.8474
lfoot -12.4821 -5.36488
ltoes -5.14199
247
root -17.0739 17.4737 2.35204 198.879 -108.836 -198.203
lowerback 17.4427 0.29141 -3.53959
upperback 3.93384 -0.696769 -3.539
thorax -5.56165 -0.400449 -1.59782
lowerneck 5.35263 4.93598 9.86736
upperneck 7.3259 6.55151 3.09616
head 1.64529 3.43878 -0.664656
rclavicle 5.32743e-014 4.45278e-014
rhumerus -16.8002 -3.8284 -90.1808
rradius 30.5159
rwrist 54.903
rhand -30.7004 -43.3664
rfingers 7.12502
rthumb -3.99387 286.691
lclavicle 5.32743e-014 4.45278e-014
lhumerus -50.2381 -72.8196 139.626
lradius 44.9274
lwrist -22.8824
lhand -12.6358 5.5372
lfingers 7.12502
lthumb 13.4442 35.0833
rfemur -36.7682 -20.6482 44.5283
rtibia 38.7531
rfoot 5.04873 -3.27438
rtoes -10.1605
lfemur -22.1934 10.3993 -24.0333
ltibia 46.3023
lfoot -12.2509 -7.37854
ltoes -1.46294
248
root -17.0903 17.3874 2.32806 194.552 -109.415 -194.467
lowerback 17.6978 0.129056 -4.45564
upperback 4.00478 -1.12948 -3.93907
thorax -5.61514 -0.607454 -1.41206
lowerneck 5.48609 5.04488 9.49846
upperneck 7.01655 6.7054 3.45242
head 1.49718 3.49652 -0.499004
rclavicle -2.46493e-014 -5.24792e-014
rhumerus -17.4259 -2.04042 -91.1887
rradius 32.4993
rwrist 53.1353
rhand -29.9649 -44.8169
rfingers 7.12502
rthumb -3.28356 285.229
lclavicle -2.46493e-014 -5.24792e-014
lhumerus -59.7866 -75.1151 149.468
lradius 47.9704
lwrist -21.5999
lhand -13.8319 4.37957
lfingers 7.12502
lthumb 12.2912 33.9983
rfemur -34.9814 -18.5885 42.3483
rtibia 37.7681
rfoot 5.08891 -5.14421
rtoes -10.0821
lfemur -21.7409 10.4245 -24.9363
ltibia 47.0689
lfoot -11.9868 -8.76561
ltoes 0.425808
249
root -17.0864 17.3255 2.30894 187.208 -109.689 -187.767
lowerback 18.4682 -0.0640676 -6.76879
upperback 4.1735 -1.93311 -4.40048
thorax -5.78019 -0.982613 -0.419129
lowerneck 5.29622 5.46392 8.93707
upperneck 6.88648 7.26063 3.10362
head 1.49379 3.76129 -0.511154
rclavicle 2.70347e-014 -3.18055e-015
rhumerus -18.6756 1.05799 -92.1992
rradius 35.031
rwrist 48.3124
rhand -34.0424 -45.0507
rfingers 7.12502
rthumb -7.22046 285.092
lclavicle 2.70347e-014 -3.18055e-015
lhumerus -61.964 -75.635 151.229
lradius 51.1937
lwrist -19.4954
lhand -11.9647 3.52818
lfingers 7.12502
lthumb 14.091 33.0304
rfemur -33.4674 -17.0153 38.4899
rtibia 37.5671
rfoot 2.47099 -6.22613
rtoes -4.7514
lfemur -20.8418 10.0241 -27.0028
ltibia 47.5204
lfoot -11.564 -9.87396
ltoes 1.23247
250
root -17.0644 17.279 2.31263 193.486 -109.991 -194.751
lowerback 18.6168 -0.354672 -4.17458
upperback 4.04878 -1.76969 -3.84775
thorax -6.06182 -0.917248 -1.32289
lowerneck 5.38386 5.58111 8.70547
upperneck 6.8212 7.4315 2.99017
head 1.45739 3.83925 -0.511912
rclavicle -1.11319e-014 -3.02153e-014
rhumerus -20.3284 3.96388 -92.7868
rradius 38.0937
rwrist 42.7926
rhand -34.8121 -45.4298
rfingers 7.12502
rthumb -7.96342 284.74
lclavicle -1.11319e-014 -3.02153e-014
lhumerus -61.5757 -75.2945 149.64
lradius 54.5764
lwrist -19.3089
lhand -12.7292 2.23645
lfingers 7.12502
lthumb 13.3542 31.7885
rfemur -32.5004 -15.4308 39.7441
rtibia 37.4659
rfoot 1.28099 -2.67991
rtoes -23.3318
lfemur -21.1453 9.72637 -24.1289
ltibia 48.4314
lfoot -10.7414 -10.8812
ltoes 0.788378
251
root -17.006 17.2904 2.36287 192.225 -108.964 -193.473
lowerback 18.8887 -0.292724 -4.56497
upperback 3.91823 -1.80873 -3.99625
thorax -6.34143 -0.928052 -1.25006
lowerneck 5.38369 5.89707 8.32906
upperneck 6.65032 7.88054 2.48625
head 1.42109 4.05055 -0.609182
rclavicle 1.59028e-015 4.6118e-014
rhumerus -21.5415 7.55384 -92.8825
rradius 40.5924
rwrist 39.588
rhand -34.2485 -41.8524
rfingers 7.12502
rthumb -7.41948 288.298
lclavicle 1.59028e-015 4.6118e-014
lhumerus -55.282 -73.6722 141.448
lradius 57.7155
lwrist -19.0712
lhand -13.4463 0.504142
lfingers 7.12502
lthumb 12.663 30.1003
rfemur -32.6027 -15.4773 38.2132
rtibia 38.1175
rfoot 0.256766 0.968325
rtoes -29.7661
lfemur -21.3552 9.25743 -24.7687
ltibia 48.9956
lfoot -9.71813 -11.2901
ltoes 0.178975
252
root -16.9284 17.3438 2.41143 196.061 -107.705 -197.109
lowerback 18.6582 -0.0495437 -3.52257
upperback 3.79698 -1.25862 -3.84126
thorax -6.37118 -0.673529 -1.80611
lowerneck 5.26798 6.00296 8.42544
upperneck 6.48902 8.0643 1.74503
head 1.43439 4.14076 -0.855715
rclavicle 1.27222e-014 -1.90833e-014
rhumerus -22.5066 11.015 -92.7011
rradius 43.1385
rwrist 37.8014
rhand -33.7781 -42.0572
rfingers 7.12502
rthumb -6.96536 288.077
lclavicle 1.27222e-014 -1.90833e-014
lhumerus -49.3099 -71.2193 132.861
lradius 60.9799
lwrist -19.5942
lhand -13.7979 -0.627761
lfingers 7.12502
lthumb 12.324 28.989
rfemur -33.3038 -15.8708 38.633
rtibia 38.6797
rfoot 1.36708 4.09072
rtoes -27.492
lfemur -22.1935 8.73575 -23.7629
ltibia 49.7586
lfoot -8.88529 -11.1173
ltoes -6.83065
253
root -16.8324 17.427 2.44673 200.507 -106.294 -201.264
lowerback 18.483 0.432856 -2.75435
upperback 3.73649 -0.460481 -3.71878
thorax -6.33917 -0.297867 -2.29952
lowerneck 4.89958 6.04214 8.2679
upperneck 6.30287 8.10142 1.58747
head 1.43757 4.15621 -0.870677
rclavicle 2.06736e-014 1.43125e-014
rhumerus -23.0959 13.6214 -92.0461
rradius 45.3683
rwrist 38.7352
rhand -33.551 -43.8952
rfingers 7.12502
rthumb -6.74618 286.232
lclavicle 2.06736e-014 1.43125e-014
lhumerus -44.7139 -68.9654 125.168
lradius 63.5197
lwrist -18.693
lhand -15.1259 -2.16745
lfingers 7.12502
lthumb 11.0433 27.522
rfemur -34.1238 -15.9279 38.9164
rtibia 39.4149
rfoot 2.07879 8.52267
rtoes -33.1351
lfemur -23.2862 7.24564 -22.4248
ltibia 50.2138
lfoot -6.09761 -11.3902
ltoes -2.49217
254
root -16.7356 17.5187 2.46988 203.994 -104.989 -204.421
lowerback 18.4824 0.925613 -2.57858
upperback 3.67663 0.212244 -3.71399
thorax -6.38761 0.0241736 -2.55424
lowerneck 5.1681 5.9436 8.75247
upperneck 5.7827 8.05531 1.16922
head 1.26729 4.12563 -1.10169
rclavicle 5.80451e-014 -6.83819e-014
rhumerus -23.7107 15.4748 -91.2122
rradius 47.1776
rwrist 41.3447
rhand -33.1921 -44.0354
rfingers 7.12502
rthumb -6.39971 286.081
lclavicle 5.80451e-014 -6.83819e-014
lhumerus -41.0254 -65.9888 117.509
lradius 66.5632
lwrist -17.1582
lhand -16.8724 -0.820638
lfingers 7.12502
lthumb 9.35847 28.9516
rfemur -34.5119 -13.8042 37.3213
rtibia 39.7643
rfoot -0.569701 16.066
rtoes -43.0351
lfemur -24.0923 5.36628 -21.4127
ltibia 50.5469
lfoot -3.43721 -11.7241
ltoes -4.32332
